<svg width="20" height="30" viewBox="0 0 20 30" fill="" xmlns="http://www.w3.org/2000/svg">
<path d="M3.95829 22.1204C3.00091 24.0622 2.49668 26.2709 2.49735 28.52C2.49735 28.9125 2.36579 29.289 2.13162 29.5665C1.89745 29.8441 1.57984 30 1.24867 30C0.917505 30 0.5999 29.8441 0.365728 29.5665C0.131556 29.289 0 28.9125 0 28.52C0 25.3779 0.795405 22.3587 2.22888 19.8189C1.29078 18.1123 0.797807 16.1158 0.811576 14.0789C0.825345 12.0421 1.34524 10.0552 2.3063 8.36655C4.10689 5.20375 10.0056 2.41539 20 0C19.6654 10.1396 18.599 16.7908 16.7997 19.9536C16.1162 21.1548 15.2277 22.1727 14.1917 22.9415C13.1557 23.7104 11.9951 24.2132 10.785 24.4174C9.57482 24.6216 8.342 24.5226 7.16611 24.127C5.99023 23.7313 4.89743 23.0477 3.95829 22.1204ZM5.46419 19.7523C6.13185 20.438 6.91466 20.9479 7.7609 21.2483C8.60713 21.5488 9.49753 21.633 10.3733 21.4953C11.249 21.3577 12.0901 21.0013 12.841 20.4498C13.5919 19.8983 14.2355 19.1642 14.7294 18.296C15.983 16.0937 16.8983 11.1697 17.3316 3.71781C9.91072 5.7706 5.51539 8.02319 4.3766 10.0227C3.7655 11.0958 3.4027 12.3401 3.32448 13.6315C3.24625 14.9228 3.45533 16.2158 3.93082 17.3814C4.46775 16.7553 5.05088 16.1811 5.67897 15.6645L6.31329 15.1436C6.58551 14.92 6.92151 14.8338 7.24736 14.9039C7.57321 14.974 7.86222 15.1946 8.05082 15.5173C8.23942 15.8399 8.31216 16.2382 8.25303 16.6244C8.1939 17.0106 8.00775 17.3532 7.73553 17.5767L7.10245 18.0977C6.51075 18.583 5.96189 19.1379 5.46419 19.7538V19.7523Z" fill=""/>
</svg>
