<svg width="350" height="334" viewBox="0 0 350 334" fill="none" xmlns="http://www.w3.org/2000/svg">
<ellipse cx="175" cy="179" rx="144" ry="145" fill="url(#paint0_radial_3274_3933)"/>
<g filter="url(#filter0_d_3274_3933)">
<path d="M137.046 190.285C134.336 184.668 133.221 178.509 133.805 172.386C134.389 166.263 136.653 160.377 140.383 155.283C148.485 144.213 175.028 134.454 220 126C218.494 161.489 213.696 184.768 205.599 195.838C199.928 203.589 191.229 209.02 181.317 210.999C171.406 212.978 161.048 211.35 152.407 206.457C155.558 201.343 159.917 196.949 165.162 193.6L168.01 191.777C170.46 190.212 172.135 187.814 172.668 185.11C173.2 182.407 172.545 179.619 170.848 177.36C169.151 175.102 166.55 173.557 163.617 173.067C160.685 172.576 157.661 173.18 155.211 174.744L152.362 176.568C146.471 180.328 141.296 184.961 137.046 190.279V190.285ZM141.237 225.82C141.237 227.194 140.645 228.511 139.592 229.483C138.538 230.454 137.109 231 135.619 231C134.129 231 132.699 230.454 131.646 229.483C130.592 228.511 130 227.194 130 225.82C130 207.866 139.552 191.051 155.565 180.826L158.414 179.002C159.639 178.22 161.15 177.918 162.617 178.164C164.083 178.409 165.383 179.181 166.232 180.31C167.081 181.44 167.408 182.834 167.142 184.185C166.876 185.537 166.038 186.736 164.813 187.519L161.965 189.342C155.57 193.426 150.344 198.877 146.734 205.23C143.124 211.583 141.238 218.648 141.237 225.82Z" fill="url(#paint1_linear_3274_3933)"/>
</g>
<mask id="path-3-inside-1_3274_3933" fill="white">
<path d="M175 10C266.127 10 340 83.0305 340 173.118C340 222.134 318.129 266.098 283.511 295.999C283.444 295.839 283.375 295.681 283.307 295.521C284.939 290.051 285.844 284.377 285.939 278.558C286.121 278.868 286.301 279.179 286.479 279.491C313.444 251.923 330 214.427 330 173.118C330 88.6612 260.713 20 175 20C89.2874 20 20 88.6612 20 173.118C20 214.123 36.3118 251.372 62.9248 278.882C62.9867 278.775 63.0491 278.669 63.1113 278.562C63.2054 284.298 64.0852 289.892 65.6738 295.29C31.528 265.405 10 221.748 10 173.118C10 83.0305 83.873 10 175 10Z"/>
</mask>
<path d="M283.511 295.999L191.347 334.805L244.744 461.621L348.877 371.677L283.511 295.999ZM283.307 295.521L187.482 266.927L177.15 301.552L191.336 334.783L283.307 295.521ZM285.939 278.558L372.27 228.089L191.793 -80.6301L185.953 276.925L285.939 278.558ZM286.479 279.491L199.689 329.165L265.429 444.025L357.968 349.415L286.479 279.491ZM62.9248 278.882L-8.94769 348.411L83.0229 443.481L149.416 329.075L62.9248 278.882ZM63.1113 278.562L163.098 276.922L157.231 -80.6107L-23.2213 228.098L63.1113 278.562ZM65.6738 295.29L-0.185791 370.54L258.767 597.179L161.605 267.056L65.6738 295.29ZM175 10V110C211.983 110 240 139.337 240 173.118H340H440C440 26.7237 320.271 -90 175 -90V10ZM340 173.118H240C240 191.639 231.88 208.457 218.144 220.321L283.511 295.999L348.877 371.677C404.378 323.739 440 252.629 440 173.118H340ZM283.511 295.999L375.674 257.193C375.505 256.791 375.363 256.46 375.305 256.326C375.289 256.288 375.275 256.255 375.266 256.234C375.255 256.209 375.252 256.201 375.248 256.193C375.242 256.177 375.255 256.209 375.277 256.26L283.307 295.521L191.336 334.783C191.365 334.85 191.391 334.911 191.413 334.961C191.434 335.011 191.453 335.055 191.467 335.089C191.475 335.106 191.481 335.121 191.487 335.134C191.49 335.141 191.492 335.147 191.494 335.152C191.496 335.155 191.497 335.157 191.498 335.16C191.499 335.162 191.5 335.165 191.501 335.167C191.505 335.176 191.507 335.182 191.509 335.187C191.512 335.192 191.513 335.194 191.513 335.195C191.513 335.196 191.51 335.188 191.503 335.173C191.497 335.157 191.486 335.132 191.472 335.1C191.459 335.068 191.441 335.027 191.42 334.978C191.4 334.929 191.375 334.871 191.347 334.805L283.511 295.999ZM283.307 295.521L379.131 324.116C383.304 310.134 385.678 295.396 385.926 280.191L285.939 278.558L185.953 276.925C186.011 273.358 186.575 269.967 187.482 266.927L283.307 295.521ZM285.939 278.558L199.609 329.026C199.636 329.072 199.663 329.118 199.689 329.165L286.479 279.491L373.27 229.817C372.939 229.24 372.606 228.664 372.27 228.089L285.939 278.558ZM286.479 279.491L357.968 349.415C402.355 304.035 430 241.763 430 173.118H330H230C230 187.091 224.533 199.812 214.991 209.567L286.479 279.491ZM330 173.118H430C430 32.3755 314.878 -80 175 -80V20V120C206.547 120 230 144.947 230 173.118H330ZM175 20V-80C35.1221 -80 -80 32.3755 -80 173.118H20H120C120 144.947 143.453 120 175 120V20ZM20 173.118H-80C-80 241.25 -52.7659 303.116 -8.94769 348.411L62.9248 278.882L134.797 209.352C125.39 199.628 120 186.997 120 173.118H20ZM62.9248 278.882L149.416 329.075C149.387 329.124 149.365 329.162 149.352 329.184C149.34 329.205 149.333 329.217 149.336 329.212C149.337 329.21 149.34 329.205 149.345 329.196C149.348 329.192 149.351 329.187 149.354 329.181C149.357 329.175 149.362 329.167 149.366 329.16C149.375 329.145 149.387 329.125 149.399 329.104C149.412 329.082 149.427 329.056 149.444 329.027L63.1113 278.562L-23.2213 228.098C-23.2201 228.096 -23.2224 228.1 -23.2369 228.125C-23.2472 228.142 -23.2739 228.188 -23.2998 228.232C-23.3531 228.323 -23.4506 228.49 -23.5662 228.689L62.9248 278.882ZM63.1113 278.562L-36.8752 280.203C-36.6296 295.17 -34.3253 309.703 -30.2575 323.524L65.6738 295.29L161.605 267.056C162.496 270.081 163.04 273.426 163.098 276.922L63.1113 278.562ZM65.6738 295.29L131.533 220.04C117.994 208.19 110 191.498 110 173.118H10H-90C-90 251.998 -54.9376 322.62 -0.185791 370.54L65.6738 295.29ZM10 173.118H110C110 139.337 138.017 110 175 110V10V-90C29.7291 -90 -90 26.7237 -90 173.118H10Z" fill="#FEFAE0" mask="url(#path-3-inside-1_3274_3933)"/>
<circle cx="66" cy="286" r="15" fill="#FEFAE0"/>
<circle cx="285" cy="286" r="15" fill="#FEFAE0"/>
<defs>
<filter id="filter0_d_3274_3933" x="129" y="126" width="98" height="113" filterUnits="userSpaceOnUse" color-interpolation-filters="sRGB">
<feFlood flood-opacity="0" result="BackgroundImageFix"/>
<feColorMatrix in="SourceAlpha" type="matrix" values="0 0 0 0 0 0 0 0 0 0 0 0 0 0 0 0 0 0 127 0" result="hardAlpha"/>
<feOffset dx="3" dy="4"/>
<feGaussianBlur stdDeviation="2"/>
<feComposite in2="hardAlpha" operator="out"/>
<feColorMatrix type="matrix" values="0 0 0 0 0 0 0 0 0 0 0 0 0 0 0 0 0 0 0.25 0"/>
<feBlend mode="normal" in2="BackgroundImageFix" result="effect1_dropShadow_3274_3933"/>
<feBlend mode="normal" in="SourceGraphic" in2="effect1_dropShadow_3274_3933" result="shape"/>
</filter>
<radialGradient id="paint0_radial_3274_3933" cx="0" cy="0" r="1" gradientUnits="userSpaceOnUse" gradientTransform="translate(175 179) rotate(90) scale(145 144)">
<stop offset="0.447115" stop-color="#FEFAE0"/>
<stop offset="1" stop-color="#FEFAE0" stop-opacity="0.15"/>
</radialGradient>
<linearGradient id="paint1_linear_3274_3933" x1="175" y1="126" x2="149.935" y2="201.427" gradientUnits="userSpaceOnUse">
<stop offset="0.346154" stop-color="#98BB1A"/>
<stop offset="0.658654" stop-color="#6E8813"/>
<stop offset="1" stop-color="#45550C"/>
</linearGradient>
</defs>
</svg>
