<svg width="35" height="35" viewBox="0 0 35 35" fill="none" xmlns="http://www.w3.org/2000/svg">
<path d="M23.3582 2.91663H11.5895C9.28989 2.91933 7.0853 3.83413 5.4594 5.4603C3.83349 7.08648 2.91906 9.29122 2.91675 11.5908L2.91675 23.3595C2.91945 25.6591 3.83425 27.8637 5.46043 29.4896C7.0866 31.1155 9.29135 32.0299 11.5909 32.0323H23.3597C25.6592 32.0295 27.8638 31.1148 29.4897 29.4886C31.1156 27.8624 32.0301 25.6577 32.0324 23.3581V11.5893C32.0297 9.28977 31.1149 7.08518 29.4887 5.45927C27.8625 3.83337 25.6578 2.91894 23.3582 2.91663V2.91663ZM29.104 23.3581C29.104 24.1126 28.9554 24.8598 28.6667 25.5569C28.3779 26.254 27.9547 26.8875 27.4211 27.421C26.8876 27.9546 26.2542 28.3778 25.557 28.6665C24.8599 28.9553 24.1128 29.1039 23.3582 29.1039H11.5895C10.0658 29.1035 8.60472 28.498 7.52748 27.4205C6.45024 26.343 5.84508 24.8817 5.84508 23.3581V11.5893C5.84547 10.0657 6.451 8.6046 7.52851 7.52736C8.60602 6.45012 10.0673 5.84496 11.5909 5.84496H23.3597C24.8833 5.84535 26.3444 6.45088 27.4216 7.52839C28.4989 8.6059 29.104 10.0672 29.104 11.5908V23.3595V23.3581Z" />
<path d="M17.4737 9.94434C15.4779 9.94742 13.5647 10.7417 12.1536 12.1531C10.7424 13.5645 9.9485 15.4779 9.9458 17.4737C9.94812 19.4701 10.7421 21.384 12.1536 22.7957C13.5651 24.2075 15.4788 25.0018 17.4752 25.0045C19.4718 25.0022 21.3859 24.2081 22.7977 22.7963C24.2095 21.3845 25.0037 19.4703 25.006 17.4737C25.0029 15.4774 24.2082 13.5638 22.7962 12.1525C21.3841 10.7413 19.4701 9.94772 17.4737 9.94579V9.94434ZM17.4737 22.0762C16.2534 22.0762 15.0832 21.5915 14.2203 20.7286C13.3574 19.8657 12.8727 18.6954 12.8727 17.4752C12.8727 16.2549 13.3574 15.0846 14.2203 14.2217C15.0832 13.3589 16.2534 12.8741 17.4737 12.8741C18.694 12.8741 19.8643 13.3589 20.7271 14.2217C21.59 15.0846 22.0748 16.2549 22.0748 17.4752C22.0748 18.6954 21.59 19.8657 20.7271 20.7286C19.8643 21.5915 18.694 22.0762 17.4737 22.0762V22.0762Z" />
<path d="M25.019 11.8052C26.0153 11.8052 26.823 10.9975 26.823 10.0012C26.823 9.00492 26.0153 8.19727 25.019 8.19727C24.0227 8.19727 23.2151 9.00492 23.2151 10.0012C23.2151 10.9975 24.0227 11.8052 25.019 11.8052Z" />
</svg>
