<svg width="30" height="28" viewBox="0 0 30 28" fill="none" xmlns="http://www.w3.org/2000/svg">
<path d="M29.1069 17.0523V27.8133H22.8681V17.7727C22.8681 15.2498 21.9654 13.529 19.7079 13.529C17.9842 13.529 16.9575 14.6898 16.5069 15.8112C16.3421 16.2123 16.2998 16.7708 16.2998 17.3323V27.8133H10.0581C10.0581 27.8133 10.1427 10.8092 10.0581 9.04604H16.2998V11.706L16.259 11.7673H16.2998V11.706C17.1281 10.43 18.6083 8.60562 21.9231 8.60562C26.0283 8.60562 29.1069 11.289 29.1069 17.0523V17.0523ZM3.53063 0C1.39708 0 0 1.4 0 3.24187C0 5.04292 1.35625 6.48521 3.44896 6.48521H3.48979C5.66708 6.48521 7.01896 5.04292 7.01896 3.24187C6.98104 1.4 5.66854 0 3.53208 0H3.53063ZM0.370417 27.8133H6.60917V9.04604H0.370417V27.8133Z" />
</svg>
