<svg width="30" height="21" viewBox="0 0 30 21" fill="none" xmlns="http://www.w3.org/2000/svg">
<path d="M23.0592 0.00145833H6.04479C2.70521 0.00145833 0 2.6775 0 5.97917V14.3908C0 17.6925 2.70667 20.37 6.04479 20.37H23.0592C26.3988 20.37 29.104 17.6925 29.104 14.3908V5.97917C29.104 2.6775 26.3973 0 23.0592 0V0.00145833ZM18.9715 10.5933L11.0133 14.3485C10.9648 14.3719 10.9111 14.3826 10.8573 14.3797C10.8035 14.3767 10.7514 14.3602 10.7057 14.3317C10.66 14.3032 10.6222 14.2636 10.596 14.2165C10.5697 14.1695 10.5557 14.1166 10.5554 14.0627V6.32042C10.5564 6.26627 10.5711 6.21326 10.598 6.16631C10.625 6.11936 10.6634 6.08 10.7097 6.0519C10.756 6.02381 10.8087 6.00789 10.8628 6.00562C10.9169 6.00336 10.9707 6.01483 11.0192 6.03896L18.9788 10.0275C19.0318 10.0539 19.0762 10.0948 19.1071 10.1454C19.1379 10.1959 19.1539 10.2542 19.1531 10.3134C19.1524 10.3727 19.1349 10.4305 19.1028 10.4803C19.0707 10.53 19.0251 10.5697 18.9715 10.5948V10.5933Z" />
</svg>
