<svg width="500" height="150" viewBox="0 0 500 150" fill="none" xmlns="http://www.w3.org/2000/svg">
<g clip-path="url(#clip0_3164_22948)">
<g clip-path="url(#clip1_3164_22948)">
<g filter="url(#filter0_d_3164_22948)">
<path d="M56.8482 29.7468C54.8921 26.4868 50.1574 26.516 48.2418 29.7999L16.053 84.9806C14.1086 88.3139 16.513 92.5 20.3719 92.5H24.1667C26.9282 92.5 29.1667 94.7386 29.1667 97.5V116.667C29.1667 119.428 31.4053 121.667 34.1667 121.667H53.3334C56.0948 121.667 58.3334 119.428 58.3334 116.667V96.7842C58.3334 94.4181 56.4153 92.5 54.0492 92.5C50.7597 92.5 48.6974 88.9463 50.3295 86.0902L68.5473 54.209C69.4446 52.6388 69.424 50.7065 68.4936 49.1558L56.8482 29.7468Z" fill="url(#paint0_linear_3164_22948)" fill-opacity="0.8" shape-rendering="crispEdges"/>
</g>
<g filter="url(#filter1_d_3164_22948)">
<path d="M83.1519 29.7468C85.1079 26.4868 89.8427 26.516 91.7583 29.7999L123.947 84.9806C125.891 88.3139 123.487 92.5 119.628 92.5H115.833C113.072 92.5 110.833 94.7386 110.833 97.5V116.667C110.833 119.428 108.595 121.667 105.833 121.667H86.6667C83.9052 121.667 81.6667 119.428 81.6667 116.667V96.7842C81.6667 94.4181 83.5848 92.5 85.9509 92.5C89.2404 92.5 91.3027 88.9463 89.6706 86.0902L71.4528 54.209C70.5555 52.6388 70.5761 50.7065 71.5065 49.1558L83.1519 29.7468Z" fill="url(#paint1_linear_3164_22948)"/>
</g>
</g>
</g>
<g clip-path="url(#clip2_3164_22948)">
<g filter="url(#filter2_i_3164_22948)">
<path d="M143.789 27.08H168.909C175.469 27.08 180.589 28.7333 184.269 32.04C188.002 35.3467 189.869 40.0933 189.869 46.28C189.869 50.44 188.962 53.9867 187.149 56.92C185.336 59.8533 182.776 62.04 179.469 63.48L189.389 83H174.829L165.949 65.48H157.949V83H143.789V27.08ZM166.429 53.56C169.256 53.56 171.442 53.0267 172.989 51.96C174.536 50.84 175.309 48.9467 175.309 46.28C175.309 43.5067 174.536 41.6133 172.989 40.6C171.496 39.5333 169.309 39 166.429 39H157.949V53.56H166.429ZM219.668 84.2C212.148 84.2 206.228 82.44 201.908 78.92C197.641 75.4 195.508 70.4133 195.508 63.96C195.508 57.6133 197.401 52.6 201.188 48.92C205.028 45.24 210.548 43.4 217.748 43.4C222.334 43.4 226.254 44.28 229.508 46.04C232.814 47.7467 235.294 50.12 236.948 53.16C238.654 56.1467 239.508 59.5333 239.508 63.32V68.52H208.868C209.401 70.6533 210.734 72.2 212.868 73.16C215.001 74.12 217.908 74.6 221.588 74.6C224.094 74.6 226.654 74.3867 229.268 73.96C231.934 73.5333 234.228 72.9467 236.148 72.2V81.48C234.174 82.28 231.694 82.92 228.708 83.4C225.774 83.9333 222.761 84.2 219.668 84.2ZM226.228 59.72C226.014 57.64 225.161 56.0133 223.668 54.84C222.174 53.6667 220.121 53.08 217.508 53.08C214.948 53.08 212.921 53.6933 211.428 54.92C209.934 56.0933 209.081 57.6933 208.868 59.72H226.228Z" fill="#8E24AA"/>
<path d="M252.058 39H236.298V27.08H282.058V39H266.218V83H252.058V39ZM288.042 23.88H302.122V48.52C303.829 46.8133 305.776 45.5333 307.962 44.68C310.202 43.8267 312.549 43.4 315.002 43.4C320.389 43.4 324.362 44.8133 326.922 47.64C329.536 50.4133 330.842 54.2 330.842 59V83H316.762V60.84C316.762 56.52 314.789 54.36 310.842 54.36C309.029 54.36 307.376 54.7867 305.882 55.64C304.389 56.44 303.136 57.6933 302.122 59.4V83H288.042V23.88ZM339.252 44.6H352.852V49.4C354.345 47.6933 356.452 46.3867 359.172 45.48C361.892 44.52 364.905 44.04 368.212 44.04V54.84C364.692 54.84 361.572 55.3467 358.852 56.36C356.185 57.3733 354.345 58.8933 353.332 60.92V83H339.252V44.6ZM381.34 39.48C379.207 39.48 377.42 38.7867 375.98 37.4C374.54 36.0133 373.82 34.2533 373.82 32.12C373.82 30.04 374.54 28.3067 375.98 26.92C377.42 25.48 379.207 24.76 381.34 24.76C383.42 24.76 385.18 25.48 386.62 26.92C388.114 28.3067 388.86 30.04 388.86 32.12C388.86 34.2 388.114 35.96 386.62 37.4C385.18 38.7867 383.42 39.48 381.34 39.48ZM374.3 44.6H388.38V83H374.3V44.6ZM396.086 44.6H410.166L418.886 66.92L427.526 44.6H441.606L425.526 83H412.166L396.086 44.6ZM467.002 84.2C459.482 84.2 453.562 82.44 449.242 78.92C444.976 75.4 442.842 70.4133 442.842 63.96C442.842 57.6133 444.736 52.6 448.522 48.92C452.362 45.24 457.882 43.4 465.082 43.4C469.669 43.4 473.589 44.28 476.842 46.04C480.149 47.7467 482.629 50.12 484.282 53.16C485.989 56.1467 486.842 59.5333 486.842 63.32V68.52H456.202C456.736 70.6533 458.069 72.2 460.202 73.16C462.336 74.12 465.242 74.6 468.922 74.6C471.429 74.6 473.989 74.3867 476.602 73.96C479.269 73.5333 481.562 72.9467 483.482 72.2V81.48C481.509 82.28 479.029 82.92 476.042 83.4C473.109 83.9333 470.096 84.2 467.002 84.2ZM473.562 59.72C473.349 57.64 472.496 56.0133 471.002 54.84C469.509 53.6667 467.456 53.08 464.842 53.08C462.282 53.08 460.256 53.6933 458.762 54.92C457.269 56.0933 456.416 57.6933 456.202 59.72H473.562Z" fill="#98BB1A"/>
</g>
</g>
<g clip-path="url(#clip3_3164_22948)">
<path d="M401.613 116.98C401.561 118.204 401.379 119.428 401.066 120.652C400.767 121.876 400.311 123.003 399.699 124.031C399.1 125.047 398.326 125.861 397.375 126.473C396.438 127.085 395.311 127.391 393.996 127.391C393.163 127.391 392.427 127.241 391.789 126.941C391.164 126.642 390.643 126.212 390.227 125.652C389.81 125.092 389.517 124.415 389.348 123.621C389.178 122.814 389.133 121.915 389.211 120.926L390.188 109.793H392.16L391.184 120.926C391.092 121.967 391.138 122.807 391.32 123.445C391.503 124.07 391.763 124.552 392.102 124.891C392.44 125.216 392.798 125.438 393.176 125.555C393.566 125.659 393.918 125.711 394.23 125.711C395.103 125.711 395.871 125.49 396.535 125.047C397.199 124.604 397.766 123.986 398.234 123.191C398.703 122.397 399.068 121.473 399.328 120.418C399.589 119.363 399.745 118.217 399.797 116.98C399.888 115.014 399.797 113.204 399.523 111.551C399.263 109.897 398.801 108.426 398.137 107.137C397.473 105.835 396.607 104.734 395.539 103.836C394.471 102.938 393.189 102.254 391.691 101.785C390.207 101.316 388.495 101.082 386.555 101.082C384.875 101.082 383.299 101.336 381.828 101.844C380.37 102.339 379.042 103.068 377.844 104.031C376.646 104.982 375.604 106.134 374.719 107.488C373.846 108.842 373.15 110.379 372.629 112.098C372.121 113.803 371.822 115.659 371.73 117.664C371.639 119.604 371.757 121.414 372.082 123.094C372.408 124.773 372.928 126.29 373.645 127.645C374.361 128.999 375.266 130.158 376.359 131.121C377.453 132.085 378.723 132.82 380.168 133.328C381.626 133.836 383.254 134.09 385.051 134.09C386.197 134.09 387.355 133.947 388.527 133.66C389.712 133.387 390.702 133.016 391.496 132.547L392.082 134.109C391.223 134.682 390.116 135.112 388.762 135.398C387.408 135.698 386.145 135.848 384.973 135.848C382.993 135.848 381.184 135.574 379.543 135.027C377.915 134.493 376.47 133.706 375.207 132.664C373.957 131.635 372.915 130.379 372.082 128.895C371.249 127.423 370.637 125.743 370.246 123.855C369.855 121.967 369.706 119.904 369.797 117.664C369.888 115.477 370.214 113.439 370.773 111.551C371.346 109.663 372.121 107.97 373.098 106.473C374.074 104.962 375.24 103.667 376.594 102.586C377.948 101.505 379.465 100.678 381.145 100.105C382.837 99.5326 384.667 99.2461 386.633 99.2461C388.716 99.2461 390.578 99.513 392.219 100.047C393.872 100.581 395.305 101.355 396.516 102.371C397.74 103.374 398.742 104.598 399.523 106.043C400.305 107.488 400.871 109.129 401.223 110.965C401.574 112.801 401.704 114.806 401.613 116.98ZM380.48 118.66C380.376 119.663 380.37 120.581 380.461 121.414C380.565 122.247 380.76 122.97 381.047 123.582C381.333 124.181 381.717 124.65 382.199 124.988C382.681 125.314 383.254 125.477 383.918 125.477C384.413 125.477 384.927 125.385 385.461 125.203C385.995 125.008 386.509 124.689 387.004 124.246C387.512 123.803 387.987 123.198 388.43 122.43C388.872 121.648 389.25 120.665 389.562 119.48L390.52 120.672C390.207 121.779 389.81 122.749 389.328 123.582C388.859 124.415 388.319 125.118 387.707 125.691C387.108 126.251 386.451 126.674 385.734 126.961C385.031 127.247 384.283 127.391 383.488 127.391C382.577 127.391 381.776 127.182 381.086 126.766C380.396 126.349 379.829 125.757 379.387 124.988C378.957 124.22 378.658 123.302 378.488 122.234C378.319 121.167 378.293 119.975 378.41 118.66C378.527 117.319 378.762 116.082 379.113 114.949C379.478 113.803 379.921 112.788 380.441 111.902C380.975 111.004 381.581 110.242 382.258 109.617C382.948 108.992 383.684 108.517 384.465 108.191C385.246 107.853 386.06 107.684 386.906 107.684C388.221 107.684 389.257 107.898 390.012 108.328C390.767 108.745 391.483 109.233 392.16 109.793L390.832 111.082C390.441 110.639 389.927 110.262 389.289 109.949C388.664 109.637 387.915 109.48 387.043 109.48C386.249 109.48 385.493 109.669 384.777 110.047C384.061 110.411 383.404 110.978 382.805 111.746C382.219 112.501 381.724 113.452 381.32 114.598C380.917 115.743 380.637 117.098 380.48 118.66ZM424.738 98.5625H427.141V117.82C427.141 119.956 426.691 121.733 425.793 123.152C424.895 124.572 423.684 125.633 422.16 126.336C420.65 127.039 418.977 127.391 417.141 127.391C415.253 127.391 413.553 127.039 412.043 126.336C410.533 125.633 409.335 124.572 408.449 123.152C407.577 121.733 407.141 119.956 407.141 117.82V98.5625H409.523V117.82C409.523 119.474 409.849 120.861 410.5 121.98C411.151 123.1 412.049 123.94 413.195 124.5C414.341 125.06 415.656 125.34 417.141 125.34C418.612 125.34 419.921 125.06 421.066 124.5C422.212 123.94 423.111 123.1 423.762 121.98C424.413 120.861 424.738 119.474 424.738 117.82V98.5625ZM449.992 120.008C449.992 119.227 449.862 118.53 449.602 117.918C449.341 117.306 448.911 116.759 448.312 116.277C447.727 115.783 446.932 115.327 445.93 114.91C444.94 114.48 443.703 114.057 442.219 113.641C440.799 113.237 439.517 112.794 438.371 112.312C437.225 111.831 436.242 111.277 435.422 110.652C434.615 110.027 433.996 109.298 433.566 108.465C433.137 107.618 432.922 106.635 432.922 105.516C432.922 104.422 433.156 103.426 433.625 102.527C434.094 101.629 434.751 100.854 435.598 100.203C436.457 99.5521 437.466 99.0508 438.625 98.6992C439.797 98.3477 441.079 98.1719 442.473 98.1719C444.465 98.1719 446.184 98.5495 447.629 99.3047C449.087 100.06 450.214 101.082 451.008 102.371C451.815 103.647 452.219 105.079 452.219 106.668H449.816C449.816 105.431 449.523 104.331 448.938 103.367C448.365 102.391 447.531 101.629 446.438 101.082C445.357 100.522 444.035 100.242 442.473 100.242C440.91 100.242 439.595 100.483 438.527 100.965C437.473 101.434 436.672 102.065 436.125 102.859C435.591 103.641 435.324 104.513 435.324 105.477C435.324 106.154 435.454 106.779 435.715 107.352C435.975 107.911 436.398 108.439 436.984 108.934C437.583 109.415 438.371 109.871 439.348 110.301C440.324 110.717 441.529 111.115 442.961 111.492C444.471 111.909 445.812 112.371 446.984 112.879C448.156 113.387 449.146 113.973 449.953 114.637C450.76 115.288 451.372 116.049 451.789 116.922C452.206 117.794 452.414 118.81 452.414 119.969C452.414 121.128 452.167 122.169 451.672 123.094C451.19 124.005 450.507 124.78 449.621 125.418C448.749 126.056 447.714 126.544 446.516 126.883C445.331 127.221 444.035 127.391 442.629 127.391C441.366 127.391 440.109 127.228 438.859 126.902C437.609 126.577 436.464 126.076 435.422 125.398C434.393 124.708 433.566 123.823 432.941 122.742C432.329 121.661 432.023 120.372 432.023 118.875H434.406C434.406 120.073 434.647 121.082 435.129 121.902C435.611 122.723 436.249 123.387 437.043 123.895C437.85 124.402 438.736 124.773 439.699 125.008C440.676 125.229 441.652 125.34 442.629 125.34C444.126 125.34 445.422 125.118 446.516 124.676C447.622 124.233 448.475 123.615 449.074 122.82C449.686 122.013 449.992 121.076 449.992 120.008ZM458.352 98.5625H460.773L471.281 123.602L481.809 98.5625H484.211L472.199 127H470.363L458.352 98.5625ZM457.609 98.5625H459.738L459.992 114.578V127H457.609V98.5625ZM482.863 98.5625H484.992V127H482.59V114.578L482.863 98.5625Z" fill="black"/>
</g>
<defs>
<filter id="filter0_d_3164_22948" x="9.3645" y="26.3193" width="61.8416" height="102.347" filterUnits="userSpaceOnUse" color-interpolation-filters="sRGB">
<feFlood flood-opacity="0" result="BackgroundImageFix"/>
<feColorMatrix in="SourceAlpha" type="matrix" values="0 0 0 0 0 0 0 0 0 0 0 0 0 0 0 0 0 0 127 0" result="hardAlpha"/>
<feOffset dx="-2" dy="3"/>
<feGaussianBlur stdDeviation="2"/>
<feComposite in2="hardAlpha" operator="out"/>
<feColorMatrix type="matrix" values="0 0 0 0 0 0 0 0 0 0 0 0 0 0 0 0 0 0 0.25 0"/>
<feBlend mode="normal" in2="BackgroundImageFix" result="effect1_dropShadow_3164_22948"/>
<feBlend mode="normal" in="SourceGraphic" in2="effect1_dropShadow_3164_22948" result="shape"/>
</filter>
<filter id="filter1_d_3164_22948" x="68.7939" y="26.3193" width="61.8418" height="102.347" filterUnits="userSpaceOnUse" color-interpolation-filters="sRGB">
<feFlood flood-opacity="0" result="BackgroundImageFix"/>
<feColorMatrix in="SourceAlpha" type="matrix" values="0 0 0 0 0 0 0 0 0 0 0 0 0 0 0 0 0 0 127 0" result="hardAlpha"/>
<feOffset dx="2" dy="3"/>
<feGaussianBlur stdDeviation="2"/>
<feComposite in2="hardAlpha" operator="out"/>
<feColorMatrix type="matrix" values="0 0 0 0 0 0 0 0 0 0 0 0 0 0 0 0 0 0 0.25 0"/>
<feBlend mode="normal" in2="BackgroundImageFix" result="effect1_dropShadow_3164_22948"/>
<feBlend mode="normal" in="SourceGraphic" in2="effect1_dropShadow_3164_22948" result="shape"/>
</filter>
<filter id="filter2_i_3164_22948" x="143.789" y="23.88" width="343.053" height="64.32" filterUnits="userSpaceOnUse" color-interpolation-filters="sRGB">
<feFlood flood-opacity="0" result="BackgroundImageFix"/>
<feBlend mode="normal" in="SourceGraphic" in2="BackgroundImageFix" result="shape"/>
<feColorMatrix in="SourceAlpha" type="matrix" values="0 0 0 0 0 0 0 0 0 0 0 0 0 0 0 0 0 0 127 0" result="hardAlpha"/>
<feOffset dy="4"/>
<feGaussianBlur stdDeviation="2"/>
<feComposite in2="hardAlpha" operator="arithmetic" k2="-1" k3="1"/>
<feColorMatrix type="matrix" values="0 0 0 0 0 0 0 0 0 0 0 0 0 0 0 0 0 0 0.25 0"/>
<feBlend mode="normal" in2="shape" result="effect1_innerShadow_3164_22948"/>
</filter>
<linearGradient id="paint0_linear_3164_22948" x1="40.8334" y1="22.5" x2="40.8334" y2="121.667" gradientUnits="userSpaceOnUse">
<stop offset="0.223794" stop-color="#710A8C"/>
<stop offset="0.451643" stop-color="#AD14D6"/>
<stop offset="1" stop-color="#A266C7"/>
</linearGradient>
<linearGradient id="paint1_linear_3164_22948" x1="99.1667" y1="22.5" x2="99.1667" y2="121.667" gradientUnits="userSpaceOnUse">
<stop offset="0.0866339" stop-color="#2D4115"/>
<stop offset="0.370291" stop-color="#4E6C2B"/>
<stop offset="0.795813" stop-color="#98BB1A"/>
</linearGradient>
<clipPath id="clip0_3164_22948">
<rect width="140" height="140" fill="white" transform="translate(0 5)"/>
</clipPath>
<clipPath id="clip1_3164_22948">
<rect width="140" height="140" fill="white" transform="translate(0 5)"/>
</clipPath>
<clipPath id="clip2_3164_22948">
<rect width="349" height="86" fill="white" transform="translate(140)"/>
</clipPath>
<clipPath id="clip3_3164_22948">
<rect width="349" height="54" fill="white" transform="translate(140 86)"/>
</clipPath>
</defs>
</svg>
